Coordinates
version=1
nRows=14
nColumns=24
inDegrees=yes

Units are S.I. units (second, meters, Newtons, ...)
Angles are in degrees.

endheader
time	pelvis_tilt	pelvis_list	pelvis_rotation	pelvis_tx	pelvis_ty	pelvis_tz	hip_flexion_r	hip_adduction_r	hip_rotation_r	knee_angle_r	ankle_angle_r	subtalar_angle_r	mtp_angle_r	hip_flexion_l	hip_adduction_l	hip_rotation_l	knee_angle_l	ankle_angle_l	subtalar_angle_l	mtp_angle_l	lumbar_extension	lumbar_bending	lumbar_rotation
      8.44000000	     49.47410797	      1.64298636	     -3.35293864	      0.75923870	      0.96428478	     -0.27654648	     17.07336784	    -14.43699770	      8.61526592	    -62.36403093	      7.13162513	     15.45037656	    -31.78168238	     13.31810605	     -7.90991648	     -0.57581194	    -62.30769230	      6.51688950	     13.76242084	    -41.20065845	      0.00000000	      0.00000000	      0.00000000
      8.45000000	     49.47333950	      1.63773940	     -3.35046043	      0.75919440	      0.96434881	     -0.27651566	     17.07686904	    -14.43006994	      8.61235158	    -62.37357583	      7.12735236	     15.44550816	    -31.76506912	     13.27241039	     -7.89986959	     -0.58666742	    -62.12061368	      6.51174720	     13.77463313	    -41.36225787	      0.00000000	      0.00000000	      0.00000000
      8.46000000	     49.47585564	      1.63073408	     -3.34902140	      0.75920691	      0.96427637	     -0.27651901	     17.08242895	    -14.42717055	      8.61331544	    -62.38566307	      7.12558942	     15.44317971	    -31.73975876	     13.22974985	     -7.89240215	     -0.59793692	    -61.91185935	      6.52054693	     13.77887495	    -41.52403476	      0.00000000	      0.00000000	      0.00000000
      8.47000000	     49.48557361	      1.62582200	     -3.35085042	      0.75929694	      0.96408109	     -0.27656354	     17.08280754	    -14.42869128	      8.61794619	    -62.39474154	      7.12619093	     15.44437452	    -31.70147426	     13.19926727	     -7.88316072	     -0.61671688	    -61.71524400	      6.54303328	     13.76863114	    -41.69235458	      0.00000000	      0.00000000	      0.00000000
      8.48000000	     49.50137313	      1.62588390	     -3.35575251	      0.75934944	      0.96397687	     -0.27659684	     17.07160920	    -14.43131950	      8.62442020	    -62.39568537	      7.12890790	     15.44967741	    -31.64845244	     13.18313531	     -7.86525564	     -0.65172517	    -61.56265522	      6.57364397	     13.74125766	    -41.88537897	      0.00000000	      0.00000000	      0.00000000
      8.49000000	     49.51830923	      1.62986139	     -3.36061858	      0.75927773	      0.96409834	     -0.27657038	     17.04729739	    -14.43082916	      8.63051693	    -62.38781752	      7.13366659	     15.45905842	    -31.58217624	     13.17436466	     -7.83549717	     -0.70763915	    -61.46164254	      6.60171681	     13.70010333	    -42.13067242	      0.00000000	      0.00000000	      0.00000000
      8.50000000	     49.53306278	      1.63337958	     -3.36226956	      0.75917186	      0.96430924	     -0.27651271	     17.01457652	    -14.42539154	      8.63479855	    -62.37658917	      7.14047298	     15.47178215	    -31.50735727	     13.16150105	     -7.79976288	     -0.77978638	    -61.38119090	      6.61402902	     13.65429980	    -42.45817314	      0.00000000	      0.00000000	      0.00000000
      8.51000000	     49.54668642	      1.63168106	     -3.36053798	      0.75911524	      0.96447087	     -0.27646608	     16.98197472	    -14.41646695	      8.63692840	    -62.37077434	      7.14897383	     15.48656274	    -31.43105680	     13.13512593	     -7.77035663	     -0.85477051	    -61.26284729	      6.59875197	     13.61612475	    -42.88937395	      0.00000000	      0.00000000	      0.00000000
      8.52000000	     49.56200164	      1.62245524	     -3.35828867	      0.75908924	      0.96456005	     -0.27643600	     16.95728023	    -14.40688086	      8.63736696	    -62.37657570	      7.15798636	     15.50191947	    -31.36116774	     13.09056319	     -7.75752909	     -0.91733198	    -61.05135043	      6.54920826	     13.59694970	    -43.42563412	      0.00000000	      0.00000000	      0.00000000
      8.53000000	     49.57995914	      1.60773409	     -3.35903975	      0.75912898	      0.96449361	     -0.27643825	     16.94364189	    -14.39795354	      8.63689222	    -62.39283978	      7.16540097	     15.51655133	    -31.30474430	     13.02783657	     -7.76242997	     -0.95858513	    -60.72504421	      6.46650322	     13.60328357	    -44.03987000	      0.00000000	      0.00000000	      0.00000000
      8.54000000	     49.59790541	      1.59316739	     -3.36433336	      0.75929640	      0.96421736	     -0.27648569	     16.93850591	    -14.38808413	      8.63603930	    -62.41110362	      7.16868099	     15.52954796	    -31.26669512	     12.95111322	     -7.77503419	     -0.98106397	    -60.31082792	      6.36034651	     13.63458770	    -44.67533435	      0.00000000	      0.00000000	      0.00000000
      8.55000000	     49.61027511	      1.58390176	     -3.37233431	      0.75944484	      0.96398675	     -0.27650537	     16.93590614	    -14.37461764	      8.63489727	    -62.42098142	      7.16581733	     15.54034369	    -31.24915237	     12.86780502	     -7.77861481	     -0.99772794	    -59.87499736	      6.24742398	     13.68388050	    -45.25287733	      0.00000000	      0.00000000	      0.00000000
      8.56000000	     49.61319147	      1.58081869	     -3.37901648	      0.75933252	      0.96414766	     -0.27640166	     16.93060415	    -14.35813510	      8.63366024	    -62.41723093	      7.15628108	     15.54846559	    -31.25150369	     12.78836670	     -7.76089352	     -1.02432607	    -59.49083977	      6.14764276	     13.74064659	    -45.68509904	      0.00000000	      0.00000000	      0.00000000
      8.57000000	     49.61007837	      1.58129640	     -3.38168532	      0.75906471	      0.96454781	     -0.27623912	     16.92099215	    -14.34473417	      8.63320127	    -62.40305784	      7.14141158	     15.55331905	    -31.27083127	     12.72666864	     -7.72396641	     -1.06992191	    -59.20339326	      6.07972347	     13.79437980	    -45.89348242	      0.00000000	      0.00000000	      0.00000000
